{
    "accessors" : [
        {
            "bufferView" : 0,
            "componentType" : 5123,
            "count" : 300000,
            "max" : [
                63404
            ],
            "min" : [
                0
            ],
            "type" : "SCALAR"
        },
        {
            "bufferView" : 1,
            "componentType" : 5126,
            "count" : 63405,
            "max" : [
                7.0467000007629395,
                9.939900398254395,
                3.1512999534606934
            ],
            "min" : [
                -7.0467000007629395,
                0.0,
                -3.1512999534606934
            ],
            "type" : "VEC3"
        },
        {
            "bufferView" : 2,
            "componentType" : 5126,
            "count" : 63405,
            "max" : [
                0.999969482421875,
                0.999969482421875,
                0.999969482421875
            ],
            "min" : [
                -0.999969482421875,
                -0.999969482421875,
                -0.999969482421875
            ],
            "type" : "VEC3"
        },
        {
            "bufferView" : 3,
            "componentType" : 5126,
            "count" : 63405,
            "max" : [
                1.0,
                0.9679475426673889,
                0.9999993443489075,
                1.0
            ],
            "min" : [
                -0.8750565648078918,
                -0.9957275390625,
                -0.9999999403953552,
                -1.0
            ],
            "type" : "VEC4"
        },
        {
            "bufferView" : 4,
            "componentType" : 5126,
            "count" : 63405,
            "max" : [
                1.0,
                1.2885555624961853
            ],
            "min" : [
                -5.413447468072263e-11,
                -0.2885555028915405
            ],
            "type" : "VEC2"
        },
        {
            "bufferView" : 5,
            "componentType" : 5123,
            "count" : 6,
            "max" : [
                3
            ],
            "min" : [
                0
            ],
            "type" : "SCALAR"
        },
        {
            "bufferView" : 6,
            "componentType" : 5126,
            "count" : 4,
            "max" : [
                25.0,
                1.53080855249657e-15,
                25.0
            ],
            "min" : [
                -25.0,
                -1.53080855249657e-15,
                -25.0
            ],
            "type" : "VEC3"
        },
        {
            "bufferView" : 7,
            "componentType" : 5126,
            "count" : 4,
            "max" : [
                0.0,
                1.0,
                -0.0
            ],
            "min" : [
                0.0,
                1.0,
                -0.0
            ],
            "type" : "VEC3"
        },
        {
            "bufferView" : 8,
            "componentType" : 5126,
            "count" : 4,
            "max" : [
                1.0,
                0.0,
                -0.0,
                1.0
            ],
            "min" : [
                1.0,
                0.0,
                -0.0,
                1.0
            ],
            "type" : "VEC4"
        },
        {
            "bufferView" : 9,
            "componentType" : 5126,
            "count" : 4,
            "max" : [
                1.0,
                1.0
            ],
            "min" : [
                0.0,
                0.0
            ],
            "type" : "VEC2"
        }
    ],
    "asset" : {
        "generator" : "Khronos Blender glTF 2.0 exporter",
        "version" : "2.0"
    },
    "bufferViews" : [
        {
            "buffer" : 0,
            "byteLength" : 600000,
            "byteOffset" : 0,
            "target" : 34963
        },
        {
            "buffer" : 0,
            "byteLength" : 760860,
            "byteOffset" : 600000,
            "target" : 34962
        },
        {
            "buffer" : 0,
            "byteLength" : 760860,
            "byteOffset" : 1360860,
            "target" : 34962
        },
        {
            "buffer" : 0,
            "byteLength" : 1014480,
            "byteOffset" : 2121720,
            "target" : 34962
        },
        {
            "buffer" : 0,
            "byteLength" : 507240,
            "byteOffset" : 3136200,
            "target" : 34962
        },
        {
            "buffer" : 0,
            "byteLength" : 12,
            "byteOffset" : 3643440,
            "target" : 34963
        },
        {
            "buffer" : 0,
            "byteLength" : 48,
            "byteOffset" : 3643452,
            "target" : 34962
        },
        {
            "buffer" : 0,
            "byteLength" : 48,
            "byteOffset" : 3643500,
            "target" : 34962
        },
        {
            "buffer" : 0,
            "byteLength" : 64,
            "byteOffset" : 3643548,
            "target" : 34962
        },
        {
            "buffer" : 0,
            "byteLength" : 32,
            "byteOffset" : 3643612,
            "target" : 34962
        }
    ],
    "buffers" : [
        {
            "byteLength" : 3643644,
            "uri" : "stanford-dragon.bin"
        }
    ],
    "materials" : [
        {
            "name" : "ffffff",
            "pbrMetallicRoughness" : {
                "metallicFactor" : 0.0
            }
        },
        {
            "name" : "Material.001",
            "pbrMetallicRoughness" : {
                "baseColorFactor" : [
                    0.5137510025978088,
                    0.8039059082984924,
                    1.0,
                    1.0
                ],
                "metallicFactor" : 0.0
            }
        }
    ],
    "meshes" : [
        {
            "name" : "default",
            "primitives" : [
                {
                    "attributes" : {
                        "NORMAL" : 2,
                        "POSITION" : 1,
                        "TANGENT" : 3,
                        "TEXCOORD_0" : 4
                    },
                    "indices" : 0,
                    "material" : 1
                }
            ]
        },
        {
            "name" : "Plane",
            "primitives" : [
                {
                    "attributes" : {
                        "NORMAL" : 7,
                        "POSITION" : 6,
                        "TANGENT" : 8,
                        "TEXCOORD_0" : 9
                    },
                    "indices" : 5,
                    "material" : 0
                }
            ]
        }
    ],
    "nodes" : [
        {
            "name" : "Camera_Perspective2",
            "rotation" : [
                0.34351667761802673,
                -0.18710121512413025,
                0.07332158088684082,
                0.9173948764801025
            ],
            "scale" : [
                0.9999998807907104,
                0.9999998211860657,
                1.0
            ],
            "translation" : [
                -5.130300045013428,
                18.297700881958008,
                11.174599647521973
            ]
        },
        {
            "mesh" : 0,
            "name" : "default"
        },
        {
            "children" : [
                4,
                5
            ],
            "name" : "LightPreset",
            "translation" : [
                0.0,
                4.969950199127197,
                -0.0
            ]
        },
        {
            "mesh" : 1,
            "name" : "Plane"
        },
        {
            "name" : "Sky_Light",
            "rotation" : [
                0.7071068286895752,
                0.0,
                -0.0,
                0.7071067094802856
            ]
        },
        {
            "name" : "Sun_Light",
            "rotation" : [
                0.2773500680923462,
                -0.18490007519721985,
                0.18490004539489746,
                0.9245003461837769
            ],
            "scale" : [
                0.9999998807907104,
                0.9999998807907104,
                0.9999998211860657
            ],
            "translation" : [
                -28.186800003051758,
                49.326900482177734,
                28.186800003051758
            ]
        }
    ],
    "scene" : 0,
    "scenes" : [
        {
            "name" : "Stanford_Dragon",
            "nodes" : [
                1,
                0,
                3,
                2
            ]
        }
    ]
}
